<?xml version="1.0" encoding="UTF-8" standalone="no"?>
<svg width="11px" height="10px" viewBox="0 0 11 10" version="1.1" xmlns="http://www.w3.org/2000/svg" xmlns:xlink="http://www.w3.org/1999/xlink" xmlns:sketch="http://www.bohemiancoding.com/sketch/ns">
    <!-- Generator: Sketch 3.3.3 (12081) - http://www.bohemiancoding.com/sketch -->
    <title>user77 copy 2</title>
    <desc>Created with Sketch.</desc>
    <defs></defs>
    <g id="Welcome" stroke="none" stroke-width="1" fill="none" fill-rule="evenodd" sketch:type="MSPage">
        <g id="Desktop" sketch:type="MSArtboardGroup" transform="translate(-46.000000, -475.000000)" fill="#FF6A00">
            <g id="Group" sketch:type="MSLayerGroup" transform="translate(42.000000, 398.000000)">
                <g id="user77-copy-2" transform="translate(4.000000, 77.000000)" sketch:type="MSShapeGroup">
                    <g id="Group">
                        <path d="M5.52373016,5 C6.20928571,5 6.79444444,4.75746032 7.27928571,4.27253968 C7.76428571,3.78761905 8.00674603,3.20246032 8.00674603,2.51698413 C8.00674603,1.8315873 7.76428571,1.24642857 7.27928571,0.761428571 C6.79436508,0.276507937 6.20912698,0.034047619 5.52373016,0.034047619 C4.83833333,0.034047619 4.25309524,0.276507937 3.7681746,0.761428571 C3.2831746,1.24642857 3.04071429,1.8315873 3.04071429,2.51698413 C3.04071429,3.20246032 3.2831746,3.78761905 3.7681746,4.27253968 C4.2531746,4.75746032 4.83833333,5 5.52373016,5 L5.52373016,5 Z" id="Shape"></path>
                        <path d="M10.0531746,7.62198413 C10.0380159,7.40428571 10.0078571,7.16936508 9.96261905,6.91714286 C9.91738095,6.66492063 9.86015873,6.43111111 9.79119048,6.21555556 C9.72222222,6.00007937 9.62952381,5.78992063 9.51309524,5.58515873 C9.39674603,5.38039683 9.26309524,5.20579365 9.11214286,5.06134921 C8.96119048,4.91690476 8.77698413,4.80166667 8.55936508,4.71547619 C8.3415873,4.62928571 8.10126984,4.58611111 7.83833333,4.58611111 C7.79952381,4.58611111 7.70896825,4.63246032 7.56674603,4.72515873 C7.42452381,4.81785714 7.26396825,4.92134921 7.08507937,5.03555556 C6.90619048,5.14968254 6.67333333,5.25325397 6.38674603,5.34579365 C6.10007937,5.43849206 5.81238095,5.48484127 5.52349206,5.48484127 C5.23468254,5.48484127 4.94698413,5.43849206 4.66031746,5.34579365 C4.37373016,5.25325397 4.14087302,5.14968254 3.96198413,5.03555556 C3.78309524,4.92134921 3.62253968,4.81785714 3.48031746,4.72515873 C3.33801587,4.63246032 3.24753968,4.58611111 3.20873016,4.58611111 C2.94579365,4.58611111 2.70547619,4.62928571 2.48777778,4.71547619 C2.27007937,4.80166667 2.08579365,4.91698413 1.93492063,5.06134921 C1.78404762,5.20579365 1.65039683,5.38039683 1.53404762,5.58515873 C1.41769841,5.78992063 1.325,6.00015873 1.25603175,6.21555556 C1.18706349,6.43111111 1.12992063,6.66492063 1.08468254,6.91714286 C1.03936508,7.16936508 1.00920635,7.40420635 0.994126984,7.62198413 C0.979047619,7.8397619 0.971507937,8.06277778 0.971507937,8.29126984 C0.971507937,8.80849206 1.12888889,9.21698413 1.44357143,9.5165873 C1.75825397,9.81611111 2.17642857,9.96587302 2.69801587,9.96587302 L8.34944444,9.96587302 C8.87103175,9.96587302 9.28912698,9.81611111 9.60388889,9.5165873 C9.91865079,9.21698413 10.0759524,8.80857143 10.0759524,8.29126984 C10.0759524,8.06277778 10.0684127,7.83968254 10.0531746,7.62198413 L10.0531746,7.62198413 Z" id="Shape"></path>
                    </g>
                </g>
            </g>
        </g>
    </g>
</svg>