<?xml version="1.0" encoding="UTF-8" standalone="no"?>
<svg width="7px" height="10px" viewBox="0 0 7 10" version="1.1" xmlns="http://www.w3.org/2000/svg" xmlns:xlink="http://www.w3.org/1999/xlink" xmlns:sketch="http://www.bohemiancoding.com/sketch/ns">
    <!-- Generator: Sketch 3.3.3 (12081) - http://www.bohemiancoding.com/sketch -->
    <title>map25 copy 2</title>
    <desc>Created with Sketch.</desc>
    <defs></defs>
    <g id="Welcome" stroke="none" stroke-width="1" fill="none" fill-rule="evenodd" sketch:type="MSPage">
        <g id="Desktop" sketch:type="MSArtboardGroup" transform="translate(-121.000000, -460.000000)" fill="#FF6A00">
            <g id="Group" sketch:type="MSLayerGroup" transform="translate(42.000000, 398.000000)">
                <g id="map25-copy-2" transform="translate(79.000000, 62.000000)" sketch:type="MSShapeGroup">
                    <path d="M5.67404762,1.00396825 C5.02746032,0.357301587 4.24722222,0.034047619 3.33333333,0.034047619 C2.41944444,0.034047619 1.63920635,0.357380952 0.992619048,1.00396825 C0.346031746,1.65055556 0.0226984127,2.43079365 0.0226984127,3.34468254 C0.0226984127,3.81460317 0.0938095238,4.20039683 0.236031746,4.50214286 L2.59619048,9.50698413 C2.66087302,9.64920635 2.76111111,9.76126984 2.89690476,9.84309524 C3.03269841,9.925 3.1781746,9.96603175 3.3334127,9.96603175 C3.48857143,9.96603175 3.63412698,9.925 3.76992063,9.84309524 C3.90571429,9.76126984 4.00801587,9.64920635 4.07698413,9.50698413 L6.43055556,4.50214286 C6.57285714,4.20039683 6.64396825,3.81460317 6.64396825,3.34468254 C6.64404762,2.43079365 6.32071429,1.65063492 5.67404762,1.00396825 L5.67404762,1.00396825 Z M4.50365079,4.51507937 C4.18039683,4.83833333 3.79031746,5 3.33333333,5 C2.87634921,5 2.48626984,4.83833333 2.16293651,4.51507937 C1.83960317,4.19174603 1.67793651,3.80166667 1.67793651,3.34468254 C1.67793651,2.88777778 1.83960317,2.49761905 2.16293651,2.17436508 C2.48626984,1.85103175 2.87642857,1.68936508 3.33333333,1.68936508 C3.79031746,1.68936508 4.18039683,1.85103175 4.50365079,2.17436508 C4.82698413,2.49761905 4.98865079,2.88777778 4.98865079,3.34468254 C4.98865079,3.8015873 4.82698413,4.19166667 4.50365079,4.51507937 L4.50365079,4.51507937 Z" id="Shape"></path>
                </g>
            </g>
        </g>
    </g>
</svg>