<?xml version="1.0" encoding="UTF-8" standalone="no"?>
<svg width="15px" height="15px" viewBox="0 0 15 15" version="1.1" xmlns="http://www.w3.org/2000/svg" xmlns:xlink="http://www.w3.org/1999/xlink" xmlns:sketch="http://www.bohemiancoding.com/sketch/ns">
    <!-- Generator: Sketch 3.3.3 (12081) - http://www.bohemiancoding.com/sketch -->
    <title>star61</title>
    <desc>Created with Sketch.</desc>
    <defs></defs>
    <g id="Page-1" stroke="none" stroke-width="1" fill="none" fill-rule="evenodd" sketch:type="MSPage">
        <g id="star61" sketch:type="MSLayerGroup" fill="#FFC000">
            <path d="M14.7585601,5.51554251 C14.7585601,5.29582591 14.5933503,5.15929555 14.262496,5.10584211 L9.8173744,4.45576518 L7.82496607,0.403578947 C7.71290601,0.1601417 7.56813006,0.0384777328 7.39107299,0.0384777328 C7.21401592,0.0384777328 7.06934866,0.1601417 6.95717991,0.403578947 L4.96466289,4.45576518 L0.519323933,5.10584211 C0.188795662,5.15929555 0.0234771807,5.29582591 0.0234771807,5.51554251 C0.0234771807,5.64026721 0.0972781331,5.78280972 0.244880038,5.94306073 L3.46821,9.09572065 L2.70672329,13.5486437 C2.69487601,13.63183 2.68900672,13.6912955 2.68900672,13.7268219 C2.68900672,13.8515466 2.71998355,13.9568138 2.78193722,14.0430607 C2.8438909,14.1291984 2.9368214,14.1721579 3.06083744,14.1721579 C3.16713689,14.1721579 3.28517494,14.1367409 3.41506027,14.0653603 L7.3909643,11.9634049 L11.3670857,14.065251 C11.4911017,14.1365223 11.6091398,14.1721579 11.7211999,14.1721579 C11.9634713,14.1721579 12.084444,14.0239312 12.084444,13.7270405 C12.084444,13.6498664 12.0815094,13.5905101 12.0755314,13.548753 L11.3140447,9.09593927 L14.528462,5.94327935 C14.6819332,5.78871255 14.7585601,5.64617004 14.7585601,5.51554251 L14.7585601,5.51554251 Z M10.091927,8.69498381 L10.7293977,12.4444858 L7.3909643,10.6721053 L4.04361831,12.4444858 L4.6901103,8.69498381 L1.98034367,6.0498583 L5.71734565,5.4977247 L7.3909643,2.09561538 L9.06458295,5.4977247 L12.8018023,6.0498583 L10.091927,8.69498381 L10.091927,8.69498381 Z" id="Shape" sketch:type="MSShapeGroup"></path>
        </g>
    </g>
</svg>