<?xml version="1.0" encoding="UTF-8" standalone="no"?>
<svg width="15px" height="16px" viewBox="0 0 15 16" version="1.1" xmlns="http://www.w3.org/2000/svg" xmlns:xlink="http://www.w3.org/1999/xlink" xmlns:sketch="http://www.bohemiancoding.com/sketch/ns">
    <!-- Generator: Sketch 3.3.3 (12081) - http://www.bohemiancoding.com/sketch -->
    <title>Group Copy 5</title>
    <desc>Created with Sketch.</desc>
    <defs></defs>
    <g id="Welcome" stroke="none" stroke-width="1" fill="none" fill-rule="evenodd" sketch:type="MSPage">
        <g id="Desktop" sketch:type="MSArtboardGroup" transform="translate(-546.000000, -615.000000)" fill="#FFFFFF">
            <g id="Group" sketch:type="MSLayerGroup" transform="translate(286.000000, 578.000000)">
                <g id="Group-Copy-5" transform="translate(260.000000, 37.500000)" sketch:type="MSShapeGroup">
                    <path d="M13.95,3.76095238 C13.2839286,2.6197619 12.3803571,1.71619048 11.2391667,1.05011905 C10.0977381,0.384047619 8.85166667,0.0510714286 7.50011905,0.0510714286 C6.14869048,0.0510714286 4.9022619,0.384047619 3.76107143,1.05011905 C2.6197619,1.71607143 1.71619048,2.61964286 1.05011905,3.76095238 C0.383928571,4.9022619 0.050952381,6.14869048 0.050952381,7.5 C0.050952381,8.85142857 0.384047619,10.097619 1.05,11.2390476 C1.71607143,12.380119 2.61964286,13.2838095 3.76095238,13.949881 C4.9022619,14.6159524 6.14857143,14.9489286 7.5,14.9489286 C8.85142857,14.9489286 10.0978571,14.6159524 11.2390476,13.949881 C12.3802381,13.2839286 13.2838095,12.3802381 13.949881,11.2390476 C14.6158333,10.0977381 14.9488095,8.85130952 14.9488095,7.5 C14.9488095,6.14857143 14.6158333,4.90214286 13.95,3.76095238 L13.95,3.76095238 Z M12.0683333,10.1478571 C11.5963095,10.9560714 10.9561905,11.5963095 10.1478571,12.0683333 C9.33964286,12.5403571 8.45702381,12.7761905 7.5,12.7761905 C6.54309524,12.7761905 5.66047619,12.5403571 4.85214286,12.0683333 C4.04392857,11.5963095 3.40380952,10.9560714 2.93178571,10.1478571 C2.45964286,9.33964286 2.22369048,8.45702381 2.22369048,7.5 C2.22369048,6.54297619 2.4597619,5.66035714 2.93178571,4.85214286 C3.40369048,4.04392857 4.04392857,3.40369048 4.85214286,2.93166667 C5.66035714,2.45964286 6.54297619,2.22369048 7.5,2.22369048 C8.45702381,2.22369048 9.33964286,2.45964286 10.1478571,2.93166667 C10.9561905,3.40369048 11.5963095,4.04392857 12.0683333,4.85214286 C12.5403571,5.66035714 12.7761905,6.54297619 12.7761905,7.5 C12.7761905,8.45702381 12.5403571,9.33964286 12.0683333,10.1478571 L12.0683333,10.1478571 Z" id="Shape"></path>
                    <path d="M10.7880952,5.94809524 C10.7880952,5.86404762 10.7558333,5.7897619 10.6910714,5.725 L9.27488095,4.30892857 C9.2102381,4.24428571 9.13595238,4.21202381 9.05190476,4.21202381 C8.9677381,4.21202381 8.89345238,4.24428571 8.82880952,4.30892857 L7.5,5.6377381 L6.17119048,4.30892857 C6.10654762,4.24428571 6.03214286,4.21202381 5.94809524,4.21202381 C5.86404762,4.21202381 5.78964286,4.24428571 5.725,4.30892857 L4.30892857,5.725 C4.24428571,5.7897619 4.21202381,5.86404762 4.21202381,5.94809524 C4.21202381,6.03214286 4.24428571,6.10654762 4.30892857,6.17119048 L5.6377381,7.5 L4.30892857,8.82880952 C4.24428571,8.89345238 4.21202381,8.9677381 4.21202381,9.05178571 C4.21202381,9.13595238 4.24428571,9.2102381 4.30892857,9.27488095 L5.725,10.6910714 C5.78964286,10.7557143 5.86404762,10.7879762 5.94809524,10.7879762 C6.03214286,10.7879762 6.10654762,10.7557143 6.17119048,10.6910714 L7.5,9.3622619 L8.82880952,10.6910714 C8.89345238,10.7557143 8.9677381,10.7879762 9.05190476,10.7879762 C9.13595238,10.7879762 9.2102381,10.7557143 9.27488095,10.6910714 L10.6910714,9.27488095 C10.7559524,9.2102381 10.7880952,9.13595238 10.7880952,9.05178571 C10.7880952,8.9677381 10.7558333,8.89345238 10.6910714,8.82880952 L9.3625,7.5 L10.6910714,6.17119048 C10.7559524,6.10654762 10.7880952,6.03214286 10.7880952,5.94809524 L10.7880952,5.94809524 Z" id="Shape"></path>
                </g>
            </g>
        </g>
    </g>
</svg>