<?xml version="1.0" encoding="UTF-8" standalone="no"?>
<svg width="10px" height="10px" viewBox="0 0 10 10" version="1.1" xmlns="http://www.w3.org/2000/svg" xmlns:xlink="http://www.w3.org/1999/xlink" xmlns:sketch="http://www.bohemiancoding.com/sketch/ns">
    <!-- Generator: Sketch 3.3.3 (12081) - http://www.bohemiancoding.com/sketch -->
    <title>time7 copy</title>
    <desc>Created with Sketch.</desc>
    <defs></defs>
    <g id="Welcome" stroke="none" stroke-width="1" fill="none" fill-rule="evenodd" sketch:type="MSPage">
        <g id="Desktop" sketch:type="MSArtboardGroup" transform="translate(-47.000000, -460.000000)" fill="#FF6A00">
            <g id="Group" sketch:type="MSLayerGroup" transform="translate(42.000000, 398.000000)">
                <g id="time7-copy" transform="translate(5.000000, 62.000000)" sketch:type="MSShapeGroup">
                    <g id="Group">
                        <path d="M9.3,2.50730159 C8.85595238,1.74650794 8.25357143,1.14412698 7.49277778,0.700079365 C6.7318254,0.256031746 5.90111111,0.034047619 5.00007937,0.034047619 C4.09912698,0.034047619 3.2681746,0.256031746 2.50738095,0.700079365 C1.74650794,1.14404762 1.14412698,1.74642857 0.700079365,2.50730159 C0.255952381,3.2681746 0.033968254,4.09912698 0.033968254,5 C0.033968254,5.90095238 0.256031746,6.73174603 0.7,7.49269841 C1.14404762,8.2534127 1.74642857,8.85587302 2.50730159,9.29992063 C3.2681746,9.74396825 4.09904762,9.96595238 5,9.96595238 C5.90095238,9.96595238 6.73190476,9.74396825 7.49269841,9.29992063 C8.25349206,8.85595238 8.85587302,8.25349206 9.29992063,7.49269841 C9.74388889,6.7318254 9.96587302,5.90087302 9.96587302,5 C9.96587302,4.09904762 9.74388889,3.26809524 9.3,2.50730159 L9.3,2.50730159 Z M8.04555556,6.7652381 C7.73087302,7.30404762 7.30412698,7.73087302 6.7652381,8.04555556 C6.22642857,8.3602381 5.63801587,8.51746032 5,8.51746032 C4.36206349,8.51746032 3.77365079,8.3602381 3.2347619,8.04555556 C2.69595238,7.73087302 2.26920635,7.30404762 1.95452381,6.7652381 C1.6397619,6.22642857 1.48246032,5.63801587 1.48246032,5 C1.48246032,4.36198413 1.63984127,3.77357143 1.95452381,3.2347619 C2.26912698,2.69595238 2.69595238,2.26912698 3.2347619,1.95444444 C3.77357143,1.6397619 4.36198413,1.48246032 5,1.48246032 C5.63801587,1.48246032 6.22642857,1.6397619 6.7652381,1.95444444 C7.30412698,2.26912698 7.73087302,2.69595238 8.04555556,3.2347619 C8.3602381,3.77357143 8.51746032,4.36198413 8.51746032,5 C8.51746032,5.63801587 8.3602381,6.22642857 8.04555556,6.7652381 L8.04555556,6.7652381 Z" id="Shape"></path>
                        <path d="M5.62079365,2.51698413 L5.20690476,2.51698413 C5.14642857,2.51698413 5.09698413,2.53642857 5.05809524,2.57515873 C5.01944444,2.61396825 5,2.66349206 5,2.72388889 L5,5 L3.5515873,5 C3.49119048,5 3.44166667,5.01936508 3.40285714,5.05809524 C3.36404762,5.0968254 3.34468254,5.14642857 3.34468254,5.20690476 L3.34468254,5.62071429 C3.34468254,5.68111111 3.36404762,5.73063492 3.40285714,5.76944444 C3.44166667,5.8081746 3.49126984,5.82753968 3.5515873,5.82753968 L5.62087302,5.82753968 C5.68119048,5.82753968 5.73079365,5.8081746 5.76944444,5.76944444 C5.8081746,5.73063492 5.82769841,5.68111111 5.82769841,5.62071429 L5.82769841,2.72388889 C5.82769841,2.66357143 5.8081746,2.61404762 5.76944444,2.57515873 C5.73071429,2.53642857 5.68111111,2.51698413 5.62079365,2.51698413 L5.62079365,2.51698413 Z" id="Shape"></path>
                    </g>
                </g>
            </g>
        </g>
    </g>
</svg>