<?xml version="1.0" encoding="UTF-8"?>
<svg width="110px" height="110px" viewBox="0 0 110 110" version="1.1" xmlns="http://www.w3.org/2000/svg" xmlns:xlink="http://www.w3.org/1999/xlink">
    <!-- Generator: Sketch 41 (35326) - http://www.bohemiancoding.com/sketch -->
    <title>Group 13</title>
    <desc>Created with Sketch.</desc>
    <defs></defs>
    <g id="Page-1" stroke="none" stroke-width="1" fill="none" fill-rule="evenodd">
        <g id="Group-13">
            <path d="M110,55 C110,85.376 85.375,110 55,110 C24.625,110 0,85.376 0,55 C0,24.625 24.625,0 55,0 C85.375,0 110,24.625 110,55" id="Fill-833-Copy-2" fill="#FFD75E"></path>
            <path d="M23.0049,24.6211 C22.9629,24.1661 23.2059,23.7421 23.6189,23.5521 C24.0209,23.3611 24.5079,23.4561 24.8249,23.7841 C26.1489,25.1821 28.1489,26.4411 31.0269,26.4411 C32.2559,26.4411 33.4199,26.1861 34.4789,25.7221 C35.6949,25.1921 36.7759,24.3881 37.6219,23.3821 C37.8219,23.1391 38.1089,23.0011 38.4259,23.0011 C38.7339,23.0011 39.0289,23.1391 39.2309,23.3821 C40.0769,24.3881 41.1569,25.1921 42.3739,25.7221 C43.4329,26.1861 44.5969,26.4411 45.8239,26.4411 C48.7029,26.4411 50.7039,25.1821 52.0269,23.7841 C52.3449,23.4561 52.8309,23.3611 53.2339,23.5521 C53.6469,23.7421 53.8899,24.1661 53.8479,24.6211 L48.9039,77.5171 C48.3649,82.9051 43.8349,87.0011 38.4259,87.0011 C33.0179,87.0011 28.4869,82.9051 27.9469,77.5171 L23.0049,24.6211 Z" id="Fill-1427" fill="#3D310C"></path>
            <path d="M53.8477,24.6211 C53.8897,24.1661 53.6467,23.7421 53.2337,23.5521 C52.8307,23.3611 52.3447,23.4561 52.0277,23.7841 C50.7037,25.1821 48.7027,26.4411 45.8247,26.4411 C44.5967,26.4411 43.4327,26.1861 42.3737,25.7211 C41.1577,25.1911 40.0767,24.3881 39.2307,23.3821 C39.0297,23.1391 38.7337,23.0011 38.4257,23.0011 C38.1087,23.0011 37.8227,23.1391 37.6217,23.3821 C36.7757,24.3881 35.6957,25.1911 34.4787,25.7211 C33.4197,26.1861 32.2557,26.4411 31.0277,26.4411 C28.1487,26.4411 26.1487,25.1821 24.8257,23.7841 C24.5077,23.4561 24.0207,23.3611 23.6187,23.5521 C23.2057,23.7421 22.9627,24.1661 23.0047,24.6211 L25.8117,55.1331 L53.5967,27.3481 L53.8477,24.6211 Z" id="Fill-1428" fill="#66510D"></path>
            <path d="M86.9951,85.3906 C87.0371,85.8426 86.7951,86.2636 86.3851,86.4526 C85.9841,86.6426 85.5001,86.5486 85.1841,86.2216 C83.8681,84.8316 81.8781,83.5786 79.0151,83.5786 C77.7931,83.5786 76.6351,83.8316 75.5821,84.2946 C74.3711,84.8216 73.2971,85.6216 72.4551,86.6216 C72.2551,86.8646 71.9711,87.0006 71.6551,87.0006 C71.3491,87.0006 71.0551,86.8646 70.8541,86.6216 C70.0131,85.6216 68.9381,84.8216 67.7271,84.2946 C66.6751,83.8316 65.5161,83.5786 64.2951,83.5786 C61.4321,83.5786 59.4411,84.8316 58.1251,86.2216 C57.8091,86.5486 57.3251,86.6426 56.9251,86.4526 C56.5151,86.2636 56.2721,85.8426 56.3141,85.3906 L61.2311,32.4766 C61.7681,27.1176 66.2741,23.0426 71.6551,23.0426 C77.0351,23.0426 81.5411,27.1176 82.0781,32.4766 L86.9951,85.3906 Z" id="Fill-1429" fill="#3D310C"></path>
            <path d="M78.3223,33.8252 C78.1263,30.2862 75.1993,27.5172 71.6553,27.5172 C68.1103,27.5172 65.1833,30.2862 64.9873,33.8252 L64.6933,39.1102 C64.5873,41.0232 65.2733,42.8962 66.5903,44.2882 C67.9073,45.6812 69.7383,46.4692 71.6553,46.4692 C73.5713,46.4692 75.4033,45.6812 76.7193,44.2882 C78.0373,42.8962 78.7223,41.0232 78.6163,39.1102 L78.3223,33.8252 Z" id="Fill-1430" fill="#66510D"></path>
            <path d="M75.582,84.2949 C74.371,84.8209 73.297,85.6219 72.455,86.6219 C72.255,86.8639 71.971,87.0009 71.655,87.0009 C71.35,87.0009 71.055,86.8639 70.854,86.6219 C70.013,85.6219 68.938,84.8209 67.728,84.2949 L69.422,56.7309 C69.494,55.5499 70.472,54.6289 71.655,54.6289 C72.838,54.6289 73.816,55.5499 73.888,56.7309 L75.582,84.2949 Z" id="Fill-1431" fill="#66510D"></path>
            <path d="M31.7236,76.1621 C31.9206,79.7191 34.8636,82.5031 38.4256,82.5031 C41.9896,82.5031 44.9316,79.7191 45.1286,76.1621 L45.4236,70.8491 C45.5316,68.9261 44.8416,67.0431 43.5176,65.6441 C42.1936,64.2441 40.3526,63.4511 38.4256,63.4511 C36.4996,63.4511 34.6586,64.2441 33.3336,65.6441 C32.0106,67.0431 31.3216,68.9261 31.4276,70.8491 L31.7236,76.1621 Z" id="Fill-1432" fill="#66510D"></path>
            <path d="M34.4785,25.7217 C35.6955,25.1927 36.7755,24.3877 37.6225,23.3817 C37.8225,23.1387 38.1085,23.0007 38.4255,23.0007 C38.7335,23.0007 39.0295,23.1387 39.2305,23.3817 C40.0775,24.3877 41.1575,25.1927 42.3745,25.7217 L40.6695,53.9637 C40.5985,55.1517 39.6155,56.0777 38.4255,56.0777 C37.2375,56.0777 36.2535,55.1517 36.1815,53.9637 L34.4785,25.7217 Z" id="Fill-1433" fill="#66510D"></path>
            <path d="M42.374,25.7207 C41.157,25.1917 40.077,24.3877 39.23,23.3817 C39.029,23.1387 38.733,23.0007 38.426,23.0007 C38.108,23.0007 37.822,23.1387 37.622,23.3817 C36.775,24.3877 35.695,25.1917 34.478,25.7207 L35.658,45.2857 L41.549,39.3957 L42.374,25.7207 Z" id="Fill-1434" fill="#947614"></path>
        </g>
    </g>
</svg>