<?xml version="1.0" encoding="UTF-8"?>
<svg width="110px" height="110px" viewBox="0 0 110 110" version="1.1" xmlns="http://www.w3.org/2000/svg" xmlns:xlink="http://www.w3.org/1999/xlink">
    <!-- Generator: Sketch 41 (35326) - http://www.bohemiancoding.com/sketch -->
    <title>Group 8</title>
    <desc>Created with Sketch.</desc>
    <defs></defs>
    <g id="Page-1" stroke="none" stroke-width="1" fill="none" fill-rule="evenodd">
        <g id="Group-8">
            <path d="M110,55 C110,85.376 85.376,110 55,110 C24.624,110 0,85.376 0,55 C0,24.624 24.624,0 55,0 C85.376,0 110,24.624 110,55" id="Fill-91" fill="#E04F5F"></path>
            <path d="M78.5,71 C75.1,68.2 71,63.45 71,43 C71,43 71,41.2 70.07,39 C68.61,35.51 64.81,31 55,31 C45.19,31 41.39,35.51 39.93,39 C39,41.2 39,43 39,43 C39,63.45 34.9,68.2 31.5,71 C29.07,73 27,74.01 27,79 L55,79 L83,79 C83,74.01 80.93,73 78.5,71" id="Fill-2619" fill="#FACB1B"></path>
            <path d="M55,79 L27,79 C27,74.01 29.07,73 31.5,71 C34.9,68.2 39,63.45 39,43 C39,43 39,41.2 39.93,39 C41.39,35.51 45.19,31 55,31 L55,79 Z" id="Fill-2620" fill="#FBED9A"></path>
            <path d="M51,27 C51,29.209 52.791,31 55,31 C57.209,31 59,29.209 59,27 C59,24.791 57.209,23 55,23 C52.791,23 51,24.791 51,27" id="Fill-2621" fill="#FBE158"></path>
            <path d="M39.0146,42.6846 C39.0856,41.6846 39.3786,40.3036 39.9296,38.9996 L54.9996,38.9996 L54.9996,42.9996 L38.9996,42.9996 C38.9996,42.9996 38.9996,42.8876 39.0146,42.6846" id="Fill-2622" fill="#FACB1B"></path>
            <path d="M70.9854,42.6846 C70.9144,41.6846 70.6214,40.3036 70.0704,38.9996 L55.0004,38.9996 L55.0004,42.9996 L71.0004,42.9996 C71.0004,42.9996 71.0004,42.8876 70.9854,42.6846" id="Fill-2623" fill="#F3B606"></path>
            <path d="M78.5,71 L55,71 L55,79 L83,79 C83,74.01 80.93,73 78.5,71" id="Fill-2624" fill="#F3B606"></path>
            <path d="M31.5,71 L55,71 L55,79 L27,79 C27,74.01 29.07,73 31.5,71" id="Fill-2625" fill="#FACB1B"></path>
            <path d="M55,87 C59.419,87 63,83.418 63,79 L47,79 C47,83.418 50.581,87 55,87" id="Fill-2626" fill="#FBE158"></path>
        </g>
    </g>
</svg>