<?xml version="1.0" encoding="UTF-8"?>
<svg width="110px" height="110px" viewBox="0 0 110 110" version="1.1" xmlns="http://www.w3.org/2000/svg" xmlns:xlink="http://www.w3.org/1999/xlink">
    <!-- Generator: Sketch 41 (35326) - http://www.bohemiancoding.com/sketch -->
    <title>Group 5</title>
    <desc>Created with Sketch.</desc>
    <defs></defs>
    <g id="Page-1" stroke="none" stroke-width="1" fill="none" fill-rule="evenodd">
        <g id="Group-5">
            <path d="M110,55 C110,85.376 85.376,110 55,110 C24.624,110 0,85.376 0,55 C0,24.624 24.624,0 55,0 C85.376,0 110,24.624 110,55" id="Fill-175" fill="#25B7D3"></path>
            <g id="Group" transform="translate(23.000000, 23.000000)">
                <polygon id="Fill-3112" fill="#FFFFFF" points="58 64 64 64 52 44 46 44 52.6 55 11.4 55 18 44 12 44 0 64 6 64 9 59 55 59"></polygon>
                <path d="M32.2402,0 L32.0002,0 L31.7602,0 C18.6372,0 8.0002,10.638 8.0002,23.76 C8.0002,49 19.0002,57 32.0002,57 C45.0002,57 56.0002,49 56.0002,23.76 C56.0002,10.638 45.3622,0 32.2402,0" id="Fill-3113" fill="#CFD3D4"></path>
                <path d="M32,0 L31.76,0 C18.638,0 8,10.638 8,23.76 C8,49 19,57 32,57 L32,0 Z" id="Fill-3114" fill="#E2E4E5"></path>
                <path d="M32,0 C21.055,0 12.394,6.973 9.292,16.147 C9.294,28.9 19.354,46.786 32,46.001 C44.646,46.786 54.706,28.9 54.708,16.147 C51.608,6.98 42.953,0 32,0" id="Fill-3115" fill="#E2E4E5"></path>
                <path d="M32,0 L31.798,0 C21.34,0 12.466,6.76 9.292,16.147 C9.294,28.9 19.354,46.786 32,46.001 L32,0 Z" id="Fill-3116" fill="#FFFFFF"></path>
                <path d="M46,47 C46,53.075 39.732,58 32,58 C24.268,58 18,53.075 18,47 C18,40.925 24.268,36 32,36 C39.732,36 46,40.925 46,47" id="Fill-3117" fill="#3E3E3F"></path>
                <path d="M32,35.9744 L32,45.9754 C36.354,46.2454 40.4,44.3024 43.836,41.1184 C41.357,38.0314 36.989,35.9744 32,35.9744" id="Fill-3118" fill="#5B5C5F"></path>
                <path d="M46.7476,14.3386 C45.6116,12.8646 43.8556,11.9996 41.9946,11.9996 L31.9996,11.9996 L22.0056,11.9996 C20.1446,11.9996 18.3886,12.8646 17.2526,14.3386 C16.1166,15.8126 15.7256,17.7326 16.2006,19.5326 C16.6246,21.1396 17.1486,22.7246 17.7686,24.2536 C18.6876,26.5176 20.8886,27.9996 23.3316,27.9996 L31.9996,27.9996 L40.6686,27.9996 C43.1116,27.9996 45.3126,26.5176 46.2306,24.2536 C46.8516,22.7246 47.3756,21.1396 47.7996,19.5326 C48.2746,17.7326 47.8836,15.8126 46.7476,14.3386" id="Fill-3119" fill="#40C9E7"></path>
                <path d="M22.0059,12 C20.1449,12 18.3889,12.864 17.2529,14.339 C16.1159,15.813 15.7259,17.733 16.2009,19.532 C16.6249,21.14 17.1489,22.725 17.7689,24.254 C18.6879,26.518 20.8879,28 23.3319,28 L31.9999,28 L31.9999,12 L22.0059,12 Z" id="Fill-3120" fill="#6FDAF1"></path>
                <path d="M32,46.0007 L32,35.9997 C27.011,35.9997 22.643,38.0567 20.164,41.1437 C23.6,44.3277 27.646,46.2707 32,46.0007" id="Fill-3121" fill="#9E9FA1"></path>
            </g>
        </g>
    </g>
</svg>