<?xml version="1.0" encoding="UTF-8"?>
<svg width="110px" height="110px" viewBox="0 0 110 110" version="1.1" xmlns="http://www.w3.org/2000/svg" xmlns:xlink="http://www.w3.org/1999/xlink">
    <!-- Generator: Sketch 41 (35326) - http://www.bohemiancoding.com/sketch -->
    <title>Group 8</title>
    <desc>Created with Sketch.</desc>
    <defs></defs>
    <g id="Page-1" stroke="none" stroke-width="1" fill="none" fill-rule="evenodd">
        <g id="Group-8">
            <path d="M55,110 C24.625,110 0,85.376 0,55 C0,24.624 24.625,0 55,0 C85.375,0 110,24.624 110,55 C110,85.376 85.375,110 55,110 Z" id="Fill-135" fill="#25B7D3"></path>
            <path d="M67.4209,69.9409 C68.0869,71.5849 69.6699,72.7559 71.5539,72.7559 C74.0399,72.7559 76.0539,70.7409 76.0539,68.2559 C76.0539,67.4409 75.8209,66.6879 75.4419,66.0289 L67.4209,69.9409 Z" id="Fill-5852" fill="#CFD3D4"></path>
            <path d="M77.2368,65.1528 C77.8388,65.9668 78.7958,66.4998 79.8878,66.4998 C81.7248,66.4998 83.2138,65.0108 83.2138,63.1738 C83.2138,62.8698 83.1598,62.5808 83.0838,62.3008 L77.2368,65.1528 Z" id="Fill-5853" fill="#CFD3D4"></path>
            <path d="M34.3608,65.9321 C33.9478,66.6121 33.6958,67.4011 33.6958,68.2561 C33.6958,70.7411 35.7108,72.7561 38.1958,72.7561 C40.1188,72.7561 41.7318,71.5381 42.3708,69.8401 L34.3608,65.9321 Z" id="Fill-5854" fill="#CFD3D4"></path>
            <path d="M26.6992,62.1948 C26.6022,62.5058 26.5362,62.8308 26.5362,63.1738 C26.5362,65.0108 28.0252,66.4998 29.8622,66.4998 C30.9932,66.4998 31.9772,65.9248 32.5732,65.0598 L26.6992,62.1948 Z" id="Fill-5855" fill="#CFD3D4"></path>
            <path d="M24.699,61.219 C23.549,60.658 22.938,59.377 23.226,58.13 C23.514,56.883 24.624,56 25.904,56 L84.096,56 C85.376,56 86.486,56.883 86.774,58.13 C87.062,59.377 86.451,60.658 85.301,61.219 L56.205,75.412 C55.445,75.783 54.556,75.783 53.795,75.412 L24.699,61.219 Z" id="Fill-5856" fill="#F0F1F1"></path>
            <path d="M53.1476,36.6367 C53.2486,36.3887 53.4076,36.1827 53.5886,35.9997 L40.6056,35.9997 C39.7246,35.9997 38.9466,36.5767 38.6916,37.4207 C38.4356,38.2637 38.7626,39.1757 39.4966,39.6637 L49.6506,46.4337 C50.9366,42.5177 52.1826,39.0067 53.1476,36.6367" id="Fill-5857" fill="#E2E4E5"></path>
            <path d="M71.3087,37.4204 C71.0537,36.5764 70.2757,36.0004 69.3947,36.0004 L56.4117,36.0004 C56.5927,36.1834 56.7517,36.3884 56.8527,36.6364 C57.8177,39.0074 59.0637,42.5174 60.3497,46.4334 L70.5037,39.6644 C71.2367,39.1754 71.5637,38.2644 71.3087,37.4204" id="Fill-5858" fill="#E2E4E5"></path>
            <path d="M57.5845,38.5103 C57.4185,32.1063 56.3265,27.1553 55.0005,27.1553 C53.6735,27.1553 52.5815,32.1053 52.4155,38.5103 C48.8885,47.8373 43.0005,67.3573 43.0005,72.0003 C43.0005,78.6273 48.3725,84.0003 55.0005,84.0003 C61.6275,84.0003 67.0005,78.6273 67.0005,72.0003 C67.0005,67.3573 61.1115,47.8383 57.5845,38.5103" id="Fill-5859" fill="#FFFFFF"></path>
            <path d="M55,73.2 C52,73.2 49,72.8 46,72 C47.606,77.891 51.221,80.91 55,80.604 C58.779,80.91 62.394,77.891 64,72 C61,72.8 58,73.2 55,73.2" id="Fill-5860" fill="#40C9E7"></path>
            <path d="M46,72 C47.606,77.891 51.221,80.91 55,80.604 L55,73.2 C52,73.2 49,72.8 46,72" id="Fill-5861" fill="#9CE5F4"></path>
        </g>
    </g>
</svg>