<?xml version="1.0" encoding="UTF-8"?>
<svg width="110px" height="110px" viewBox="0 0 110 110" version="1.1" xmlns="http://www.w3.org/2000/svg" xmlns:xlink="http://www.w3.org/1999/xlink">
    <!-- Generator: Sketch 41 (35326) - http://www.bohemiancoding.com/sketch -->
    <title>Group 6</title>
    <desc>Created with Sketch.</desc>
    <defs></defs>
    <g id="Page-1" stroke="none" stroke-width="1" fill="none" fill-rule="evenodd">
        <g id="Group-6">
            <path d="M110,55 C110,85.376 85.376,110 55,110 C24.624,110 0,85.376 0,55 C0,24.624 24.624,0 55,0 C85.376,0 110,24.624 110,55" id="Fill-11-Copy" fill="#32BEA6"></path>
            <g id="Group-3" transform="translate(23.000000, 20.000000)">
                <polygon id="Fill-2065" fill="#F3B606" points="36 8 28 8 28 13 36 13"></polygon>
                <polygon id="Fill-2066" fill="#F3B606" points="34 5 30 5 30 8 34 8"></polygon>
                <polygon id="Fill-2067" fill="#F3B606" points="64 56 0 56 0 52 64 52"></polygon>
                <path d="M0,52 C4,50 5,48 5,44 L59,44 C59,48 61,50 64,52 L0,52 Z" id="Fill-2068" fill="#F3B606"></path>
                <path d="M4.00148717,42.947 C3.98648717,43.221 4.08548717,43.489 4.27448717,43.688 C4.46348717,43.888 4.72648717,44 5.00148717,44 L58.9294872,44 C59.2044872,44 59.4664872,43.887 59.6554872,43.688 C59.8444872,43.489 59.9434872,43.221 59.9294872,42.947 C59.6344872,37.418 56.9194872,12 31.9654872,12 C7.01048717,12 4.29648717,37.418 4.00148717,42.947" id="Fill-2069" fill="#FACB1B"></path>
                <path d="M32.205,44 L5,44 C5,48 4,50 0,52 L32.205,52 L32.205,44 Z" id="Fill-2070" fill="#F3B606"></path>
                <polygon id="Fill-2071" fill="#FACB1B" points="32.205 52 0 52 0 56 32.205 56"></polygon>
                <path d="M31.9654872,12 C7.01048717,12 4.29748717,37.417 4.00148717,42.947 C3.98648717,43.221 4.08548717,43.489 4.27448717,43.688 C4.46348717,43.888 4.72648717,44 5.00148717,44 L31.9654872,44 L31.9654872,12 Z" id="Fill-2072" fill="#FBE158"></path>
                <path d="M26.1256471,3.553 C25.9556471,3.853 25.9586471,4.22 26.1316471,4.518 C26.3046471,4.816 26.6236471,5 26.9676471,5 L37.4096471,5 C37.7666471,5 38.0966471,4.809 38.2756471,4.5 C38.4536471,4.19 38.4546471,3.809 38.2756471,3.5 C37.0656471,1.408 34.8066471,0 32.2156471,0 C29.6036471,0 27.3276471,1.432 26.1256471,3.553" id="Fill-2073" fill="#FBE158"></path>
            </g>
        </g>
    </g>
</svg>