<?xml version="1.0" encoding="UTF-8"?>
<svg width="110px" height="110px" viewBox="0 0 110 110" version="1.1" xmlns="http://www.w3.org/2000/svg" xmlns:xlink="http://www.w3.org/1999/xlink">
    <!-- Generator: Sketch 41 (35326) - http://www.bohemiancoding.com/sketch -->
    <title>Group 10</title>
    <desc>Created with Sketch.</desc>
    <defs></defs>
    <g id="Page-1" stroke="none" stroke-width="1" fill="none" fill-rule="evenodd">
        <g id="Group-10">
            <path d="M110,55 C110,85.376 85.375,110 55,110 C24.625,110 0,85.376 0,55 C0,24.625 24.625,0 55,0 C85.375,0 110,24.625 110,55" id="Fill-833-Copy-3" fill="#FFD75E"></path>
            <polygon id="Fill-758" fill="#3D310C" points="43 23 37 23 51.043 42 54.043 37.941"></polygon>
            <path d="M62,41 C62,42.104 61.104,43 60,43 L48,43 C46.896,43 46,42.104 46,41 C46,39.896 46.896,39 48,39 L60,39 C61.104,39 62,39.896 62,41 L62,41 Z M34,35 C32.343,35 31,36.343 31,38 L31,47 L79,47 L79,38 C79,36.343 77.657,35 76,35 L34,35 Z" id="Fill-759" fill="#E17000"></path>
            <polygon id="Fill-760" fill="#FFFFFF" points="79 47 31 47 31 87 79 87"></polygon>
            <path d="M75,55 C75,55.553 74.552,56 74,56 L60,56 C59.448,56 59,55.553 59,55 C59,54.448 59.448,54 60,54 L74,54 C74.552,54 75,54.448 75,55" id="Fill-761" fill="#FFE9A1"></path>
            <path d="M75,63 C75,63.553 74.552,64 74,64 L60,64 C59.448,64 59,63.553 59,63 C59,62.448 59.448,62 60,62 L74,62 C74.552,62 75,62.448 75,63" id="Fill-762" fill="#FFE9A1"></path>
            <path d="M75,71 C75,71.553 74.552,72 74,72 L60,72 C59.448,72 59,71.553 59,71 C59,70.448 59.448,70 60,70 L74,70 C74.552,70 75,70.448 75,71" id="Fill-763" fill="#FFE9A1"></path>
            <path d="M75,79 C75,79.553 74.552,80 74,80 L37,80 C36.448,80 36,79.553 36,79 C36,78.448 36.448,78 37,78 L74,78 C74.552,78 75,78.448 75,79" id="Fill-764" fill="#FFE9A1"></path>
            <polygon id="Fill-765" fill="#FFE9A1" points="54.385 51 35 51 35 72 54.385 72"></polygon>
            <polygon id="Fill-766" fill="#FFF5D9" points="54.385 51 35 51 35 72 41.456 72 54.385 59.071"></polygon>
            <path d="M60,43 L48,43 C46.896,43 46,42.104 46,41 C46,39.896 46.896,39 48,39 L60,39 C61.104,39 62,39.896 62,41 C62,42.104 61.104,43 60,43 L60,43 Z M34,35 C32.343,35 31,36.343 31,38 L31,47 L66.456,47 L77.823,35.633 C77.317,35.242 76.689,35 76,35 L34,35 Z" id="Fill-767" fill="#FA9200"></path>
            <polygon id="Fill-768" fill="#66510D" points="65.043 23 54 37.941 51 42 57 42 71.043 23"></polygon>
            <path d="M47.246,65.89 C48.183,64.807 48.731,63.506 48.731,60.039 C48.731,58.255 47.115,56 44.692,56 C42.269,56 40.654,58.255 40.654,60.039 C40.654,63.488 41.408,64.778 42.343,65.865 C39.614,66.248 37.109,67.275 35,68.783 L35,72.154 L54.385,72.154 L54.385,68.783 C52.328,67.313 49.896,66.295 47.246,65.89" id="Fill-769" fill="#3D310C"></path>
            <path d="M47.246,65.89 C48.183,64.807 48.73,63.506 48.73,60.039 C48.73,58.255 47.116,56 44.692,56 C42.269,56 40.654,58.255 40.654,60.039 C40.654,63.488 41.408,64.778 42.343,65.865 C39.614,66.248 37.109,67.275 35,68.783 L35,72.154 L41.455,72.154 L47.646,65.963 C47.513,65.939 47.381,65.91 47.246,65.89" id="Fill-770" fill="#66510D"></path>
        </g>
    </g>
</svg>