<?xml version="1.0" encoding="UTF-8"?>
<svg width="110px" height="110px" viewBox="0 0 110 110" version="1.1" xmlns="http://www.w3.org/2000/svg" xmlns:xlink="http://www.w3.org/1999/xlink">
    <!-- Generator: Sketch 41 (35326) - http://www.bohemiancoding.com/sketch -->
    <title>Group 14</title>
    <desc>Created with Sketch.</desc>
    <defs></defs>
    <g id="Page-1" stroke="none" stroke-width="1" fill="none" fill-rule="evenodd">
        <g id="Group-14">
            <path d="M110,55 C110,85.376 85.375,110 55,110 C24.625,110 0,85.376 0,55 C0,24.625 24.625,0 55,0 C85.375,0 110,24.625 110,55" id="Fill-833" fill="#FFD75E"></path>
            <path d="M23,58.001 L23,36.001 C23,36.001 35,24.001 55,24.001 C75,24.001 87,36.001 87,36.001 L87,58.001 L71,64.001 L39,64.001 L23,58.001 Z" id="Fill-1292" fill="#FFFFFF"></path>
            <polygon id="Fill-1294" fill="#FFAA00" points="35 36.001 35 60.001 39 60.001 39 40.001 71 40.001 71 60.001 75 60.001 75 36.001"></polygon>
            <path d="M77,62.001 C77,63.106 76.104,64.001 75,64.001 L35,64.001 C33.896,64.001 33,63.106 33,62.001 C33,60.897 33.896,60.001 35,60.001 L75,60.001 C76.104,60.001 77,60.897 77,62.001" id="Fill-1296" fill="#3D310C"></path>
            <path d="M63,74.001 C61.343,74.001 60,72.658 60,71.001 C60,69.344 61.343,68.001 63,68.001 C64.657,68.001 66,69.344 66,71.001 C66,72.658 64.657,74.001 63,74.001 L63,74.001 Z M59,83.001 C57.343,83.001 56,81.658 56,80.001 C56,78.344 57.343,77.001 59,77.001 C60.657,77.001 62,78.344 62,80.001 C62,81.658 60.657,83.001 59,83.001 L59,83.001 Z M52,71.001 C52,69.344 53.343,68.001 55,68.001 C56.657,68.001 58,69.344 58,71.001 C58,72.658 56.657,74.001 55,74.001 C53.343,74.001 52,72.658 52,71.001 L52,71.001 Z M51,83.001 C49.343,83.001 48,81.658 48,80.001 C48,78.344 49.343,77.001 51,77.001 C52.657,77.001 54,78.344 54,80.001 C54,81.658 52.657,83.001 51,83.001 L51,83.001 Z M44,71.001 C44,69.344 45.343,68.001 47,68.001 C48.657,68.001 50,69.344 50,71.001 C50,72.658 48.657,74.001 47,74.001 C45.343,74.001 44,72.658 44,71.001 L44,71.001 Z M38,64.001 L44.242,84.971 C44.688,86.752 46.287,88.001 48.123,88.001 L61.877,88.001 C63.713,88.001 65.313,86.752 65.758,84.971 L72,64.001 L38,64.001 Z" id="Fill-1298" fill="#FFF5D9"></path>
            <path d="M54.8105,60.001 L34.9995,60.001 C33.8955,60.001 32.9995,60.897 32.9995,62.001 C32.9995,63.106 33.8955,64.001 34.9995,64.001 L54.8105,64.001 L54.8105,60.001 Z" id="Fill-1300" fill="#66510D"></path>
            <path d="M51,83.001 C49.343,83.001 48,81.658 48,80.001 C48,78.344 49.343,77.001 51,77.001 C52.657,77.001 54,78.344 54,80.001 C54,81.658 52.657,83.001 51,83.001 L51,83.001 Z M44,71.001 C44,69.344 45.343,68.001 47,68.001 C48.657,68.001 50,69.344 50,71.001 C50,72.658 48.657,74.001 47,74.001 C45.343,74.001 44,72.658 44,71.001 L44,71.001 Z M54.811,73.982 C53.244,73.883 52,72.593 52,71.001 C52,69.409 53.244,68.119 54.811,68.02 L54.811,64.001 L38,64.001 L44.242,84.971 C44.688,86.752 46.287,88.001 48.123,88.001 L54.811,88.001 L54.811,73.982 Z" id="Fill-1302" fill="#FFFFFF"></path>
        </g>
    </g>
</svg>