<?xml version="1.0" encoding="UTF-8"?>
<svg width="110px" height="110px" viewBox="0 0 110 110" version="1.1" xmlns="http://www.w3.org/2000/svg" xmlns:xlink="http://www.w3.org/1999/xlink">
    <!-- Generator: Sketch 41 (35326) - http://www.bohemiancoding.com/sketch -->
    <title>flippers</title>
    <desc>Created with Sketch.</desc>
    <defs></defs>
    <g id="Page-1" stroke="none" stroke-width="1" fill="none" fill-rule="evenodd">
        <g id="flippers">
            <path d="M110,55 C110,85.376 85.376,110 55,110 C24.624,110 0,85.376 0,55 C0,24.625 24.624,0 55,0 C85.376,0 110,24.625 110,55" id="Fill-713" fill="#25B7D3"></path>
            <path d="M23.0049,24.6195 C22.9629,24.1645 23.2059,23.7415 23.6189,23.5505 C24.0209,23.3595 24.5079,23.4555 24.8249,23.7835 C26.1489,25.1805 28.1489,26.4395 31.0279,26.4395 C32.2549,26.4395 33.4199,26.1855 34.4779,25.7205 C35.6949,25.1915 36.7749,24.3865 37.6219,23.3815 C37.8229,23.1375 38.1089,23.0005 38.4259,23.0005 C38.7329,23.0005 39.0289,23.1375 39.2309,23.3815 C40.0769,24.3865 41.1569,25.1915 42.3739,25.7205 C43.4329,26.1855 44.5969,26.4395 45.8249,26.4395 C48.7039,26.4395 50.7039,25.1805 52.0269,23.7835 C52.3439,23.4555 52.8319,23.3595 53.2339,23.5505 C53.6469,23.7415 53.8899,24.1645 53.8479,24.6195 L48.9039,77.5165 C48.3649,82.9035 43.8349,86.9995 38.4259,86.9995 C33.0179,86.9995 28.4869,82.9035 27.9479,77.5165 L23.0049,24.6195 Z" id="Fill-6375" fill="#3E3E3F"></path>
            <path d="M53.8477,24.6196 C53.8897,24.1646 53.6467,23.7406 53.2337,23.5506 C52.8317,23.3596 52.3447,23.4546 52.0267,23.7836 C50.7037,25.1806 48.7037,26.4396 45.8247,26.4396 C44.5967,26.4396 43.4327,26.1856 42.3737,25.7206 C41.1567,25.1906 40.0767,24.3866 39.2307,23.3806 C39.0297,23.1376 38.7327,22.9996 38.4267,22.9996 C38.1087,22.9996 37.8227,23.1376 37.6217,23.3806 C36.7747,24.3866 35.6957,25.1906 34.4777,25.7206 C33.4197,26.1856 32.2557,26.4396 31.0277,26.4396 C28.1487,26.4396 26.1487,25.1806 24.8257,23.7836 C24.5077,23.4546 24.0207,23.3596 23.6187,23.5506 C23.2057,23.7406 22.9627,24.1646 23.0047,24.6196 L25.8117,55.1316 L53.5967,27.3476 L53.8477,24.6196 Z" id="Fill-6376" fill="#5B5C5F"></path>
            <path d="M86.9951,85.3891 C87.0371,85.8421 86.7951,86.2631 86.3841,86.4521 C85.9841,86.6421 85.5001,86.5471 85.1841,86.2211 C83.8681,84.8311 81.8781,83.5781 79.0141,83.5781 C77.7931,83.5781 76.6351,83.8311 75.5821,84.2941 C74.3711,84.8201 73.2971,85.6211 72.4551,86.6211 C72.2551,86.8631 71.9711,87.0001 71.6551,87.0001 C71.3491,87.0001 71.0551,86.8631 70.8541,86.6211 C70.0121,85.6211 68.9381,84.8201 67.7271,84.2941 C66.6751,83.8311 65.5161,83.5781 64.2951,83.5781 C61.4321,83.5781 59.4411,84.8311 58.1251,86.2211 C57.8091,86.5471 57.3251,86.6421 56.9251,86.4521 C56.5151,86.2631 56.2721,85.8421 56.3141,85.3891 L61.2311,32.4751 C61.7681,27.1161 66.2751,23.0421 71.6551,23.0421 C77.0351,23.0421 81.5411,27.1161 82.0781,32.4751 L86.9951,85.3891 Z" id="Fill-6377" fill="#3E3E3F"></path>
            <path d="M78.3223,33.8239 C78.1263,30.2849 75.1993,27.5169 71.6553,27.5169 C68.1113,27.5169 65.1833,30.2849 64.9873,33.8239 L64.6933,39.1089 C64.5873,41.0229 65.2733,42.8949 66.5903,44.2869 C67.9063,45.6789 69.7393,46.4679 71.6553,46.4679 C73.5713,46.4679 75.4033,45.6789 76.7193,44.2869 C78.0363,42.8949 78.7223,41.0229 78.6163,39.1089 L78.3223,33.8239 Z" id="Fill-6378" fill="#5B5C5F"></path>
            <path d="M75.582,84.2941 C74.372,84.8201 73.297,85.6211 72.455,86.6211 C72.255,86.8631 71.971,87.0001 71.655,87.0001 C71.35,87.0001 71.055,86.8631 70.854,86.6211 C70.012,85.6211 68.938,84.8201 67.728,84.2941 L69.422,56.7301 C69.494,55.5491 70.472,54.6281 71.655,54.6281 C72.838,54.6281 73.816,55.5491 73.887,56.7301 L75.582,84.2941 Z" id="Fill-6379" fill="#5B5C5F"></path>
            <path d="M31.7231,76.1609 C31.9211,79.7179 34.8631,82.5019 38.4261,82.5019 C41.9891,82.5019 44.9311,79.7179 45.1291,76.1609 L45.4241,70.8479 C45.5311,68.9239 44.8411,67.0419 43.5171,65.6419 C42.1941,64.2429 40.3521,63.4499 38.4261,63.4499 C36.5001,63.4499 34.6581,64.2429 33.3341,65.6419 C32.0111,67.0419 31.3211,68.9239 31.4281,70.8479 L31.7231,76.1609 Z" id="Fill-6380" fill="#5B5C5F"></path>
            <path d="M34.478,25.7203 C35.695,25.1913 36.775,24.3863 37.622,23.3813 C37.823,23.1373 38.108,23.0003 38.426,23.0003 C38.733,23.0003 39.029,23.1373 39.23,23.3813 C40.077,24.3863 41.157,25.1913 42.374,25.7203 L40.67,53.9633 C40.599,55.1503 39.615,56.0763 38.426,56.0763 C37.237,56.0763 36.253,55.1503 36.182,53.9633 L34.478,25.7203 Z" id="Fill-6381" fill="#5B5C5F"></path>
            <path d="M42.374,25.7202 C41.157,25.1912 40.077,24.3872 39.23,23.3812 C39.029,23.1372 38.733,23.0002 38.426,23.0002 C38.108,23.0002 37.823,23.1372 37.622,23.3812 C36.775,24.3872 35.695,25.1912 34.478,25.7202 L35.658,45.2852 L41.549,39.3942 L42.374,25.7202 Z" id="Fill-6382" fill="#9E9FA1"></path>
        </g>
    </g>
</svg>