<?xml version="1.0" encoding="UTF-8"?>
<svg width="110px" height="110px" viewBox="0 0 110 110" version="1.1" xmlns="http://www.w3.org/2000/svg" xmlns:xlink="http://www.w3.org/1999/xlink">
    <!-- Generator: Sketch 41 (35326) - http://www.bohemiancoding.com/sketch -->
    <title>training</title>
    <desc>Created with Sketch.</desc>
    <defs></defs>
    <g id="Page-1" stroke="none" stroke-width="1" fill="none" fill-rule="evenodd">
        <g id="training">
            <path d="M110,55 C110,85.376 85.375,110 55,110 C24.625,110 0,85.376 0,55 C0,24.624 24.625,0 55,0 C85.375,0 110,24.624 110,55" id="Fill-389" fill="#E04F5F"></path>
            <path d="M85.1978,23.0634 C83.9328,22.7644 82.6618,23.5504 82.3638,24.8184 L81.3358,28.8734 C80.8048,30.9644 78.9238,32.4284 76.7658,32.4284 L71.6938,32.4284 L69.2918,32.4284 L64.6228,32.4284 C63.3208,32.4284 62.2658,33.4844 62.2658,34.7854 C62.2658,36.0874 63.3208,37.1424 64.6228,37.1424 L68.0538,37.1424 L71.6938,37.1424 L72.9168,37.1424 L80.4788,37.1424 C82.6458,37.1424 84.5328,35.6654 85.0538,33.5614 L86.9518,25.8974 C87.2508,24.6304 86.4648,23.3614 85.1978,23.0634" id="Fill-5424" fill="#3E3E3F"></path>
            <polygon id="Fill-5425" fill="#F0F1F1" points="72.1914 65.3645 76.0534 36.9995 73.0154 36.9995 64.5994 61.4495"></polygon>
            <path d="M84.833,71.8829 L47.298,52.5289 C42.133,49.8649 35.953,50.0859 30.991,53.1109 C26.028,56.1349 23,61.5269 23,67.3379 C23,73.6739 26.537,79.1819 31.743,81.9999 C54,81.9989 81,81.9989 81,81.9989 C81,81.9989 87,79.9989 87,75.4379 C87,73.9409 86.164,72.5689 84.833,71.8829" id="Fill-5426" fill="#FACB1B"></path>
            <path d="M50,40.5814 C50,41.9394 48.899,42.1634 47.541,42.1634 L34,42.1634 C31.746,42.1634 26.918,40.3364 26.918,38.0814 C26.918,36.8674 26.541,35.7164 27.475,34.9404 C28.409,34.1654 29.641,33.8464 30.834,34.0704 L47.994,38.1644 C49.157,38.3824 50,39.3984 50,40.5814" id="Fill-5427" fill="#3E3E3F"></path>
            <path d="M41,50.7344 L41,42.0004 L37,42.0004 L34.635,51.4594 C36.697,50.8064 38.859,50.5624 41,50.7344" id="Fill-5428" fill="#F0F1F1"></path>
            <path d="M47.2983,52.5289 C42.1323,49.8649 35.9533,50.0859 30.9903,53.1109 C26.0283,56.1349 23.0003,61.5269 23.0003,67.3379 C23.0003,71.4179 24.4723,75.1489 26.9063,78.0459 L50.6793,54.2729 L47.2983,52.5289 Z" id="Fill-5429" fill="#FBE158"></path>
            <path d="M49,66.0001 C49,71.5231 44.523,76.0001 39,76.0001 C33.477,76.0001 29,71.5231 29,66.0001 C29,60.4771 33.477,56.0001 39,56.0001 C44.523,56.0001 49,60.4771 49,66.0001" id="Fill-5430" fill="#E2E4E5"></path>
            <path d="M63,77.0001 C63,75.8951 62.104,75.0001 61,75.0001 L51,75.0001 C49.896,75.0001 49,75.8951 49,77.0001 C49,78.1041 49.896,79.0001 51,79.0001 L61,79.0001 C62.104,79.0001 63,78.1041 63,77.0001" id="Fill-5431" fill="#3E3E3F"></path>
            <path d="M39,56.0001 C33.477,56.0001 29,60.4771 29,66.0001 C29,68.7491 30.111,71.2381 31.906,73.0461 L46.046,58.9061 C44.238,57.1101 41.749,56.0001 39,56.0001" id="Fill-5432" fill="#FFFFFF"></path>
            <path d="M59.5127,75.0001 L39.9637,64.2481 C38.9957,63.7141 37.7797,64.0681 37.2477,65.0361 C36.7157,66.0041 37.0687,67.2201 38.0357,67.7521 L51.2147,75.0001 L59.5127,75.0001 Z" id="Fill-5433" fill="#FFFFFF"></path>
            <path d="M35,82.0001 C35,83.6571 33.657,85.0001 32,85.0001 C30.343,85.0001 29,83.6571 29,82.0001 C29,80.3431 30.343,79.0001 32,79.0001 C33.657,79.0001 35,80.3431 35,82.0001" id="Fill-5434" fill="#FFFFFF"></path>
            <path d="M32,79.0001 C30.346,79.0001 29,80.3461 29,82.0001 C29,83.6541 30.346,85.0001 32,85.0001 C33.654,85.0001 35,83.6541 35,82.0001 C35,80.3461 33.654,79.0001 32,79.0001 M32,87.0001 C29.243,87.0001 27,84.7571 27,82.0001 C27,79.2431 29.243,77.0001 32,77.0001 C34.757,77.0001 37,79.2431 37,82.0001 C37,84.7571 34.757,87.0001 32,87.0001" id="Fill-5435" fill="#3E3E3F"></path>
            <path d="M80,82.0001 C80,83.6571 78.657,85.0001 77,85.0001 C75.343,85.0001 74,83.6571 74,82.0001 C74,80.3431 75.343,79.0001 77,79.0001 C78.657,79.0001 80,80.3431 80,82.0001" id="Fill-5436" fill="#FFFFFF"></path>
            <path d="M77,79.0001 C75.346,79.0001 74,80.3461 74,82.0001 C74,83.6541 75.346,85.0001 77,85.0001 C78.654,85.0001 80,83.6541 80,82.0001 C80,80.3461 78.654,79.0001 77,79.0001 M77,87.0001 C74.243,87.0001 72,84.7571 72,82.0001 C72,79.2431 74.243,77.0001 77,77.0001 C79.757,77.0001 82,79.2431 82,82.0001 C82,84.7571 79.757,87.0001 77,87.0001" id="Fill-5437" fill="#3E3E3F"></path>
        </g>
    </g>
</svg>