<?xml version="1.0" encoding="UTF-8"?>
<svg width="110px" height="110px" viewBox="0 0 110 110" version="1.1" xmlns="http://www.w3.org/2000/svg" xmlns:xlink="http://www.w3.org/1999/xlink">
    <!-- Generator: Sketch 41 (35326) - http://www.bohemiancoding.com/sketch -->
    <title>food</title>
    <desc>Created with Sketch.</desc>
    <defs></defs>
    <g id="Page-1" stroke="none" stroke-width="1" fill="none" fill-rule="evenodd">
        <g id="food">
            <path d="M110,55 C110,85.376 85.375,110 55,110 C24.625,110 0,85.376 0,55 C0,24.624 24.625,0 55,0 C85.375,0 110,24.624 110,55" id="Fill-153-Copy" fill="#32BEA6"></path>
            <path d="M74.0002,59 C74.0002,70.046 65.0462,79 54.0002,79 C42.9542,79 34.0002,70.046 34.0002,59 C34.0002,47.954 42.9542,39 54.0002,39 C65.0462,39 74.0002,47.954 74.0002,59" id="Fill-6347" fill="#FFFFFF"></path>
            <path d="M70.0002,59 C70.0002,67.837 62.8372,75 54.0002,75 C45.1642,75 38.0002,67.837 38.0002,59 C38.0002,50.163 45.1642,43 54.0002,43 C62.8372,43 70.0002,50.163 70.0002,59" id="Fill-6348" fill="#E2E4E5"></path>
            <path d="M76.0002,44.1804 C76.0002,37.3284 79.8712,31.0644 86.0002,28.0004 L86.0002,59.0004 L76.0002,59.0004 L76.0002,44.1804 Z" id="Fill-6349" fill="#E2E4E5"></path>
            <path d="M78.0002,45.1804 C78.0002,39.1084 81.0442,33.5044 86.0002,30.1724 L86.0002,28.0004 C79.8712,31.0644 76.0002,37.3284 76.0002,44.1804 L76.0002,59.0004 L78.0002,59.0004 L78.0002,45.1804 Z" id="Fill-6350" fill="#FFFFFF"></path>
            <path d="M33.0002,32 C32.4482,32 32.0002,32.448 32.0002,33 L32.0002,37.5 C32.0002,38.328 31.3282,39 30.5002,39 C29.6722,39 29.0002,38.328 29.0002,37.5 L29.0002,33 C29.0002,32.448 28.5522,32 28.0002,32 C27.4482,32 27.0002,32.448 27.0002,33 L27.0002,37.5 C27.0002,38.328 26.3282,39 25.5002,39 C24.6722,39 24.0002,38.328 24.0002,37.5 L24.0002,33 C24.0002,32.448 23.5522,32 23.0002,32 C22.4482,32 22.0002,32.448 22.0002,33 L22.0002,43 C22.0002,45.573 23.6232,47.762 25.8992,48.614 L24.2502,75.008 C24.1142,77.172 25.8352,79 28.0002,79 C30.1682,79 31.8852,77.169 31.7502,75.008 L30.1012,48.614 C32.3772,47.762 34.0002,45.573 34.0002,43 L34.0002,33 C34.0002,32.448 33.5522,32 33.0002,32" id="Fill-6351" fill="#F0F1F1"></path>
            <path d="M82.5002,77 C81.9482,77 81.5002,76.552 81.5002,76 C81.5002,75.448 81.9482,75 82.5002,75 C83.0522,75 83.5002,75.448 83.5002,76 C83.5002,76.552 83.0522,77 82.5002,77 L82.5002,77 Z M79.0002,59 L79.0002,75.5 C79.0002,77.433 80.5672,79 82.5002,79 C84.4332,79 86.0002,77.433 86.0002,75.5 L86.0002,59 L79.0002,59 Z" id="Fill-6352" fill="#84462D"></path>
            <path d="M79.0002,75.5 C79.0002,77.433 80.5672,79 82.5002,79 C82.5112,79 82.5212,78.997 82.5312,78.997 L82.5312,76.994 C82.5202,76.994 82.5112,77 82.5002,77 C81.9482,77 81.5002,76.552 81.5002,76 C81.5002,75.448 81.9482,75 82.5002,75 C82.5112,75 82.5202,75.006 82.5312,75.006 L82.5312,59 L79.0002,59 L79.0002,75.5 Z" id="Fill-6353" fill="#9C6144"></path>
            <path d="M54.0002,39 C42.9542,39 34.0002,47.954 34.0002,59 C34.0002,64.472 36.2022,69.426 39.7622,73.037 L68.0372,44.762 C64.4262,41.202 59.4722,39 54.0002,39" id="Fill-6354" fill="#FFFFFF"></path>
            <path d="M54.0002,43 C45.1642,43 38.0002,50.164 38.0002,59 C38.0002,63.367 39.7542,67.321 42.5912,70.208 L65.2082,47.591 C62.3212,44.754 58.3672,43 54.0002,43" id="Fill-6355" fill="#F0F1F1"></path>
            <path d="M27.9858,32.0027 C27.4408,32.0107 26.9998,32.4527 26.9998,32.9997 L26.9998,37.4997 C26.9998,38.3287 26.3288,38.9997 25.4998,38.9997 C24.6718,38.9997 23.9998,38.3287 23.9998,37.4997 L23.9998,32.9997 C23.9998,32.4477 23.5528,31.9997 22.9998,31.9997 C22.4478,31.9997 21.9998,32.4477 21.9998,32.9997 L21.9998,42.9997 C21.9998,45.5737 23.6238,47.7617 25.8998,48.6137 L24.2498,75.0077 C24.1148,77.1587 25.8178,78.9897 27.9858,78.9987 L27.9858,32.0027 Z" id="Fill-6356" fill="#FFFFFF"></path>
        </g>
    </g>
</svg>