<?xml version="1.0" encoding="UTF-8"?>
<svg width="600px" height="346px" viewBox="0 0 600 346" version="1.1" xmlns="http://www.w3.org/2000/svg" xmlns:xlink="http://www.w3.org/1999/xlink">
    <!-- Generator: Sketch 41.2 (35397) - http://www.bohemiancoding.com/sketch -->
    <title>Group</title>
    <desc>Created with Sketch.</desc>
    <defs></defs>
    <g id="Page-1" stroke="none" stroke-width="1" fill="none" fill-rule="evenodd">
        <g id="Group" transform="translate(-8.000000, 0.000000)" fill="#FFFFFF">
            <polygon id="Fill-1" points="62.9506884 0 62.9506884 54.0475733 94.3428426 54.0475733 94.3428426 47.1510474 70.6924063 47.1510474 70.6924063 30.3362001 92.833352 30.3362001 92.833352 23.4013106 70.6924063 23.4013106 70.6924063 6.89652584 93.6072612 6.89652584 93.6072612 0"></polygon>
            <polygon id="Fill-2" points="216.570103 0 200.416716 38.0078822 184.152021 0 176.359374 0 199.663283 54.3576358 201.417443 54.3576358 224.279794 0"></polygon>
            <polygon id="Fill-3" points="308.669507 0 308.669507 54.0475733 340.062186 54.0475733 340.062186 47.1510474 316.411749 47.1510474 316.411749 30.3362001 338.55217 30.3362001 338.55217 23.4013106 316.411749 23.4013106 316.411749 6.89652584 339.326604 6.89652584 339.326604 0"></polygon>
            <polygon id="Fill-4" points="470.062142 0 470.062142 42.0392203 433.599149 0 427.328594 0 427.328594 54.1253516 434.605651 54.1253516 434.605651 12.4403383 470.759395 54.1253516 477.416905 54.1253516 477.416905 0"></polygon>
            <polygon id="Fill-5" points="562.263928 0 562.263928 6.89652584 580.804673 6.89652584 580.804673 54.2026045 588.585769 54.2026045 588.585769 6.89652584 607.436287 6.89652584 607.436287 0"></polygon>
            <path d="M118.28913,265.05815 C116.678306,264.183669 113.875642,264.484272 112.089455,264.267754 C108.82843,263.873081 105.551129,263.530961 102.247051,263.408513 C101.295678,256.073695 101.671082,248.461398 101.949878,241.040393 C102.352059,230.177169 103.165347,219.296603 104.237479,208.41919 C105.247656,198.166106 106.4752,187.901461 108.112275,177.657311 C109.460054,169.144781 113.047128,159.774587 110.025522,151.583682 C106.101371,140.904394 91.5819094,138.479074 79.8913641,139.022472 C79.8666872,139.023523 79.8430604,139.024048 79.8183835,139.025099 C76.807803,139.15911 76.8398304,141.687958 77.2057835,143.488948 C77.7140224,145.996776 77.7339739,148.623373 77.7449998,151.200571 C77.7560256,154.134077 77.6725442,157.073365 77.6237155,160.01055 C77.5171323,166.654296 77.4714538,173.252847 77.1181017,179.90868 C76.063296,199.751629 75.0231913,219.60141 76.0622459,239.286175 C76.5662845,248.97957 77.3811469,258.87687 80.1496839,268.155096 C72.7455669,271.65092 65.0132997,278.934761 68.6675796,287.115681 C72.5129741,295.733842 83.0153534,298.179658 91.9352615,298.57433 C114.588646,299.487701 141.704873,290.292508 159.644447,276.742777 C196.175695,248.921236 212.726012,202.633108 206.207113,158.757162 C202.91091,137.275611 191.937045,116.99437 172.526834,103.806203 C153.709392,90.9753963 127.843812,86.630317 103.041962,93.050713 C75.7781991,100.084928 53.1746931,118.014949 35.232494,137.013897 C27.1594757,145.545346 19.4965139,154.286481 13.6045126,164.010357 C9.84995008,170.204249 8.43549176,175.868408 10.4411454,182.266206 C13.4974044,191.999016 21.2911013,198.617011 32.0554757,201.28565 C36.6763546,202.435509 37.4077356,198.024739 38.445215,194.854744 C39.0742132,192.926575 39.7515151,191.008392 40.508098,189.1065 C46.5754627,173.844593 57.2290536,159.939604 69.509219,147.655348 C74.3495647,142.808913 79.4865581,138.181099 84.8445935,133.754562 C103.158521,120.831262 127.769256,112.615131 148.702084,120.941624 C168.229904,128.694763 178.42461,146.612697 182.054213,164.772375 C184.084019,174.908791 184.230505,185.44461 182.452719,195.782304 C181.620005,200.63084 180.18717,205.367439 179.025256,210.153964 C177.883819,214.850622 176.408981,219.48737 174.595492,224.010079 C167.13047,242.578093 153.973488,259.049244 136.76372,270.173656 C126.706049,276.664998 115.55367,281.058426 103.715064,282.972931 C98.1627634,283.872112 92.3699948,284.490135 86.7672907,284.014005 C84.9186241,283.853719 80.6447968,283.625113 79.7879312,281.578175 C80.0257744,281.112556 81.1703621,280.080941 85.7628888,278.068688 C90.1091716,281.980731 97.8004857,282.379608 103.503472,281.668041 C107.672817,281.182977 104.972535,276.065895 104.403391,274.016854 C107.219707,273.933295 110.025522,274.010023 112.832387,274.043656 C114.398582,274.062576 116.138565,274.197111 117.672208,273.738324 C119.489372,273.1944 120.842925,271.758128 121.1653,269.95924 C121.591108,267.586473 120.280607,266.137063 118.28913,265.05815 C118.039211,264.921512 119.515624,265.725573 118.28913,265.05815" id="Fill-6" transform="translate(108.563617, 194.376096) rotate(-5.000000) translate(-108.563617, -194.376096) "></path>
            <path d="M273.630535,193.249776 C273.44257,189.098092 272.971084,185.300089 272.209251,181.860497 C271.442692,178.424059 269.966804,175.620358 267.76426,173.455176 C266.65065,178.235919 266.722056,182.254119 267.931748,185.514505 C269.141966,188.775942 271.042087,191.352089 273.630535,193.249776 M244.954414,240.25315 C248.161359,240.718244 251.187691,240.221092 254.053885,238.771156 C256.916405,237.320694 259.448149,235.208065 261.658568,232.419605 C263.867412,229.637976 265.779608,226.33292 267.401458,222.50286 C269.019107,218.678055 270.389987,214.586281 271.511997,210.218078 C263.954569,208.284655 257.798997,204.138225 253.026382,197.721508 C248.252716,191.310046 246.465479,182.65247 247.863136,171.710943 C242.559705,174.935593 238.280102,180.163562 235.073157,187.374355 C231.864636,194.587775 230.090525,201.978824 229.698845,209.519124 C229.304015,217.066255 230.34727,223.869762 232.749854,229.927543 C235.152963,235.993732 239.22255,239.417032 244.954414,240.25315 M314.598472,164.354578 C316.307477,163.116431 317.884173,162.680241 319.314908,163.035499 C320.747217,163.394961 321.746369,164.586863 322.315513,166.600692 C322.885706,168.619252 322.546005,171.36094 321.327912,174.821553 C317.662606,185.21653 311.392633,197.662126 304.645866,203.405114 C297.900149,209.153358 299.577497,208.337733 292.187031,210.227012 C290.631337,216.714676 288.467646,222.981092 285.705409,229.040974 C282.940548,235.100857 279.544588,240.331979 275.510179,244.745377 C271.470519,249.162454 266.882718,252.593637 261.705296,255.059948 C256.529975,257.52731 250.836964,258.493234 244.575335,257.981893 C235.644401,257.339696 228.31904,254.116097 222.543597,248.217552 C216.774981,242.326364 212.608786,235.122929 210.136897,226.55627 C207.666058,217.998019 206.878498,208.813337 207.875549,199.001698 C208.879426,189.194789 211.60701,180.144643 216.138107,171.879112 C220.662903,163.620413 226.89198,156.912027 234.801711,151.813864 C242.701466,146.723058 252.15849,144.530548 262.982719,145.331981 C269.002305,145.847526 274.070518,147.594386 278.165307,150.542082 C282.25642,153.493982 285.558923,157.302496 288.086467,161.954484 C290.60981,166.609101 292.37762,171.8418 293.4151,177.644698 C294.447329,183.45075 294.712474,189.515362 294.229962,195.845367 C298.995752,194.134243 298.448717,192.869899 300.15304,187.365946 C301.857364,181.861993 308.027995,177.461248 310.458529,170.462284 C311.505985,167.632833 312.88474,165.597982 314.598472,164.354578 Z" id="Fill-9"></path>
            <path d="M366.917054,182.295426 C366.980584,178.139011 366.610431,174.179145 365.799768,170.411098 C364.984381,166.647254 363.651829,163.505112 361.795812,160.981519 C360.213341,166.118571 360.011725,170.451563 361.159988,173.971561 C362.302476,177.494712 364.223598,180.265304 366.917054,182.295426 M338.665165,226.158234 C341.809631,226.618072 344.727805,226.123023 347.435437,224.673613 C350.139919,223.228406 352.617059,221.135221 354.877357,218.401416 C357.13083,215.667085 359.081354,212.457675 360.715279,208.756895 C362.349729,205.062947 363.638178,201.094147 364.576425,196.847342 C356.948641,194.682685 350.793069,190.354949 346.090809,183.798966 C341.389599,177.252443 339.959389,168.572269 342.009671,157.734271 C338.26666,159.606733 335.00721,162.533933 332.244974,166.502734 C329.478537,170.476789 327.317996,174.907004 325.751801,179.789175 C324.180356,184.672396 323.289888,189.741655 323.058345,194.976457 C322.820502,200.218615 323.226358,205.066101 324.250711,209.51576 C325.272965,213.971726 326.983021,217.709819 329.363553,220.741074 C331.743035,223.776533 334.839722,225.577524 338.665165,226.158234 M411.572219,160.15381 C412.787162,157.394779 415.303185,155.488683 417.210656,154.451813 C419.111826,153.414943 420.715824,153.127478 422.011098,153.575229 C423.301122,154.026659 424.112309,155.230122 424.440459,157.178261 C424.764934,159.130078 424.203666,161.798717 422.778707,165.178399 C418.662392,174.293185 413.460818,181.410434 407.142485,186.577967 C400.8189,191.75023 394.180817,195.224507 387.153154,197.029701 C385.415271,203.389135 383.077267,209.492637 380.153318,215.345461 C377.224643,221.200913 373.674847,226.294346 369.491326,230.637849 C365.307806,234.98503 360.581919,238.367339 355.292664,240.808424 C350.001834,243.24951 344.301997,244.210704 338.1438,243.710399 C330.666178,243.165425 324.126802,240.689129 318.461618,236.244199 C318.430116,238.438811 318.400713,240.632898 318.372361,242.827509 C317.952329,244.557553 317.141142,245.814095 315.942475,246.607119 C314.740658,247.399618 313.445909,247.895718 312.056128,248.094368 C310.667921,248.294069 309.355321,248.27042 308.115701,248.036034 C306.882381,247.801648 306.01869,247.509453 305.527778,247.162604 C302.725113,241.519466 300.839694,234.123162 299.914048,224.957399 C298.995752,215.797942 298.773135,205.689379 299.320227,194.64222 C299.872044,183.591907 301.051285,171.831604 302.923578,159.357632 C304.799547,146.886288 307.127575,134.469598 309.941266,122.110717 C312.775433,109.758668 312.113357,112.529785 315.388033,101.069034 C318.68686,89.6172175 321.921633,79.2364299 325.055598,69.9214165 C326.760404,69.7232918 328.899417,70.0007715 331.456888,70.75333 C334.008584,71.5132459 336.595982,72.5790201 339.208057,73.9627397 C341.813831,75.3511891 344.332449,77.0638903 346.746059,79.1024198 C349.160194,81.1441026 350.975258,83.4595863 352.205427,86.0357328 C348.460315,95.126345 344.770858,105.120343 341.162782,116.007741 C337.574657,126.901971 338.089721,123.538581 334.901677,135.133342 C340.987418,132.565604 347.858619,131.512443 355.465402,132.004338 C362.129212,132.59083 367.77602,134.413366 372.383248,137.435688 C376.985225,140.458534 380.629004,144.313294 383.325086,148.967911 C386.016967,153.629359 387.804729,158.880451 388.713573,164.71856 C389.618743,170.55772 389.84451,176.603939 389.422903,182.856166 C393.813289,181.06989 397.977383,178.331355 401.943011,174.645816 C405.902865,170.960802 409.65865,167.761434 411.572219,160.15381" id="Fill-11"></path>
            <path d="M466.674979,198.893154 C467.280875,194.957988 467.450988,191.150526 467.174817,187.469716 C466.894446,183.792585 466.040205,180.633101 464.608946,177.995467 C462.426878,182.66112 461.668195,186.746062 462.297719,190.237681 C462.921466,193.730351 464.381603,196.614983 466.674979,198.893154 M434.069457,236.796456 C436.996031,237.646238 439.831773,237.560051 442.59506,236.540523 C445.353096,235.524674 447.985122,233.865577 450.490089,231.568487 C452.990331,229.271397 455.26533,226.480834 457.304586,223.185238 C459.342267,219.895422 461.089601,216.298697 462.538712,212.392961 C455.574054,209.333852 450.293199,204.419624 446.687748,197.580381 C443.079147,190.750598 442.86388,182.325832 446.234638,172.311864 C442.433872,173.595733 438.950756,175.944325 435.806815,179.34818 C432.657099,182.754664 430.022972,186.673013 427.893934,191.101126 C425.760695,195.529239 424.24963,200.219066 423.34131,205.156943 C422.429315,210.102177 422.175196,214.752589 422.564251,219.109755 C422.950155,223.471126 424.082142,227.247582 425.94551,230.432817 C427.807302,233.62541 430.511784,235.741193 434.069457,236.796456 M526.157426,170.498835 C530.765968,170.498835 533.161517,172.217223 534.334982,172.811072 C535.501097,173.410175 534.059061,178.422477 537.258131,187.105804 C537.913906,188.884722 535.608033,191.257208 532.533922,193.827574 C527.159086,198.321378 518.950082,201.433565 512.26317,205.504843 C505.569957,209.581377 490.892458,214.748385 483.973479,215.537205 C481.486363,221.342731 478.459506,226.825056 474.91181,231.994166 C471.359388,237.165378 467.316053,241.530427 462.76868,245.100876 C458.220781,248.675529 453.288029,251.264288 447.940494,252.88397 C442.593485,254.503127 437.05221,254.667093 431.268367,253.382173 C424.238604,251.881785 418.353428,248.673427 413.556661,243.709799 C413.238486,245.788269 412.921887,247.866739 412.606863,249.944683 C411.981015,251.532834 411.047494,252.61595 409.802623,253.211901 C408.558278,253.805749 407.263529,254.107404 405.918376,254.112133 C404.573748,254.11844 403.329928,253.92557 402.184815,253.53878 C401.043902,253.153042 400.264743,252.765201 399.842085,252.370002 C397.923589,246.645408 397.103476,239.380486 397.427951,230.562623 C397.758201,221.750016 398.874961,212.130721 400.843862,201.719453 C402.817488,191.30871 405.482592,180.301491 408.898504,168.713562 C412.315991,157.125633 416.157185,145.651744 420.453589,134.293996 C424.766269,122.945183 423.774993,125.488221 428.389572,115.044896 C433.029352,104.611555 437.462792,95.1861806 441.664163,86.7614145 C443.311214,86.7976761 445.303742,87.3410737 447.636496,88.3926586 C449.961374,89.4484477 452.279951,90.7995845 454.579102,92.4571051 C456.872478,94.1177788 459.039844,96.0743258 461.065974,98.3251693 C463.091054,100.58337 464.512863,103.016047 465.343477,105.622149 C460.589763,113.755771 455.767793,122.753365 450.912747,132.608097 C446.073451,142.47334 447.001722,139.353271 442.451724,149.932708 C448.568967,148.296209 455.237503,148.198986 462.400626,149.668367 C468.657006,151.102012 473.784023,153.573052 477.765928,157.047855 C481.742058,160.523182 484.700134,164.659101 486.651184,169.430385 C488.596983,174.205873 489.606635,179.423857 489.703242,185.084337 C489.7967,190.742715 489.21443,196.511454 487.993711,202.387401 C492.402474,201.271176 496.72093,199.218983 500.976906,196.245536 C505.227631,193.271038 509.212161,189.157192 512.945722,183.889282 C514.465714,181.43138 521.548883,170.498835 526.157426,170.498835 Z" id="Fill-13"></path>
            <path d="M491.253596,314.537895 C490.286472,327.594155 504.312396,323.318445 510.83392,318.037398 C519.087027,311.341624 517.837432,311.930217 523.146638,305.539776 C514.079719,291.84605 492.239096,300.314961 491.253596,314.537895 M560.593556,283.539528 C552.74788,299.585 542.391987,316.245341 528.163923,329.008355 C514.317037,341.329924 493.077061,353.409223 479.87965,338.130499 C468.167578,324.670107 474.439183,301.327131 489.481585,290.771867 C497.780371,284.971596 499.505653,283.89426 508.86397,282.118496 C513.888604,281.17044 521.320549,282.237265 526.528422,284.183827 C528.536176,284.929028 531.71792,287.235053 531.717395,287.235053 C531.706369,287.233476 537.512264,275.661313 538.192716,274.493586 C539.283749,272.575402 540.243523,270.845884 540.9224,269.029654 C524.827817,281.198293 501.722898,283.468581 496.193699,263.661368 C491.403232,246.451323 497.171849,226.692984 503.034448,210.890307 C506.232468,202.225373 510.028509,193.899407 514.276084,185.929749 C516.073822,182.554272 517.955566,179.238706 519.912391,175.983575 C522.748133,171.259589 525.974505,169.585251 532.251361,171.314769 C538.738757,173.097366 546.056243,178.548685 543.649459,184.410443 C540.302327,192.603976 535.013597,200.91733 531.023292,209.521827 C525.756613,220.787607 517.340744,235.943357 518.0716,248.897663 C518.333595,253.672626 520.666348,258.357723 526.861823,257.268825 C535.488759,255.752672 542.948005,245.285172 547.333141,239.162226 C558.472919,223.582899 563.074371,206.260916 569.105508,190.947507 C570.593472,187.183663 572.059384,183.465541 573.611403,179.818365 C574.218875,178.387873 575.309383,173.233478 576.969035,172.354793 C581.265964,170.077672 593.296736,177.75461 595.543383,180.189389 C601.298874,186.320218 596.239061,192.798948 593.671614,199.732786 C590.168021,209.12768 586.36778,218.773777 582.693549,228.795628 C576.324811,246.1812 569.741332,264.839606 560.593556,283.539528" id="Fill-15"></path>
            <polygon id="Fill-18" points="61.0957214 84.8504437 606.255997 84.8504437 606.255997 80.1206767 61.0957214 80.1206767"></polygon>
        </g>
    </g>
</svg>